<svg xmlns="http://www.w3.org/2000/svg" width="80" height="80" viewBox="0 0 80 80">
  <filter id="shadow" x="-20%" y="-20%" width="140%" height="140%">
    <feDropShadow dx="0" dy="3" stdDeviation="2" flood-color="#000814" flood-opacity=".7"/>
  </filter>
  <g filter="url(#shadow)">
    <ellipse cx="40" cy="64" rx="28" ry="8" fill="#03101c" opacity=".55"/>
    <path d="M18 58 L24 32 L40 18 L56 32 L62 58 Z" fill="#431420" stroke="#07111d" stroke-width="4"/>
    <path d="M24 56 L29 35 L40 26 L51 35 L56 56 Z" fill="#0b1725" opacity=".65"/>
    <circle cx="40" cy="32" r="17" fill="#ff5a7a" opacity=".25"/>
    <path d="M40 9 L53 29 L40 49 L27 29 Z" fill="#ff5a7a" stroke="#f8e6a0" stroke-width="2"/>
    <g transform="translate(40 32) scale(0.8)" fill="#ffffff" stroke="#07111d" stroke-width="1.5">
      <path d="M0 13 C-16 2 -15 -13 -5 -13 C0 -13 3 -10 5 -6 C7 -10 10 -13 15 -13 C25 -13 26 2 10 13 L0 22 Z"/>
    </g>
    <rect x="19" y="56" width="42" height="9" rx="4" fill="#111827" stroke="#ff5a7a" stroke-width="3"/>
  </g>
</svg>